solid OpenSCAD_Model
  facet normal 1 -0 0
    outer loop
      vertex 1.5 0 0.349999
      vertex 1.5 1 0
      vertex 1.5 1 0.349999
    endloop
  endfacet
  facet normal 1 0 0
    outer loop
      vertex 1.5 1 0
      vertex 1.5 0 0.349999
      vertex 1.5 0 0
    endloop
  endfacet
  facet normal -0 0 1
    outer loop
      vertex 0.349999 1 0.349999
      vertex 1.5 0 0.349999
      vertex 1.5 1 0.349999
    endloop
  endfacet
  facet normal 0 0 1
    outer loop
      vertex 1.5 0 0.349999
      vertex 0.349999 1 0.349999
      vertex 0.349999 0 0.349999
    endloop
  endfacet
  facet normal 0 0 -1
    outer loop
      vertex 0 0 0
      vertex 1.5 1 0
      vertex 1.5 0 0
    endloop
  endfacet
  facet normal -0 0 -1
    outer loop
      vertex 1.5 1 0
      vertex 0 0 0
      vertex 0 1 0
    endloop
  endfacet
  facet normal -1 0 0
    outer loop
      vertex 0 0 0
      vertex 0 1 1.5
      vertex 0 1 0
    endloop
  endfacet
  facet normal -1 -0 0
    outer loop
      vertex 0 1 1.5
      vertex 0 0 0
      vertex 0 0 1.5
    endloop
  endfacet
  facet normal 0 1 0
    outer loop
      vertex 1.5 1 0.349999
      vertex 1.5 1 0
      vertex 0.349999 1 0.349999
    endloop
  endfacet
  facet normal 0 1 -0
    outer loop
      vertex 0.349999 1 0.349999
      vertex 0 1 1.5
      vertex 0.349999 1 1.5
    endloop
  endfacet
  facet normal 0 1 0
    outer loop
      vertex 0.349999 1 0.349999
      vertex 0 1 0
      vertex 0 1 1.5
    endloop
  endfacet
  facet normal 0 1 0
    outer loop
      vertex 0 1 0
      vertex 0.349999 1 0.349999
      vertex 1.5 1 0
    endloop
  endfacet
  facet normal 0 -1 0
    outer loop
      vertex 0 0 1.5
      vertex 0.349999 0 0.349999
      vertex 0.349999 0 1.5
    endloop
  endfacet
  facet normal 0 -1 0
    outer loop
      vertex 0 0 0
      vertex 0.349999 0 0.349999
      vertex 0 0 1.5
    endloop
  endfacet
  facet normal 0 -1 0
    outer loop
      vertex 1.5 0 0
      vertex 0.349999 0 0.349999
      vertex 0 0 0
    endloop
  endfacet
  facet normal 0 -1 0
    outer loop
      vertex 0.349999 0 0.349999
      vertex 1.5 0 0
      vertex 1.5 0 0.349999
    endloop
  endfacet
  facet normal 1 -0 0
    outer loop
      vertex 0.349999 0 1.5
      vertex 0.349999 1 0.349999
      vertex 0.349999 1 1.5
    endloop
  endfacet
  facet normal 1 0 0
    outer loop
      vertex 0.349999 1 0.349999
      vertex 0.349999 0 1.5
      vertex 0.349999 0 0.349999
    endloop
  endfacet
  facet normal -0 0 1
    outer loop
      vertex 0 1 1.5
      vertex 0.349999 0 1.5
      vertex 0.349999 1 1.5
    endloop
  endfacet
  facet normal 0 0 1
    outer loop
      vertex 0.349999 0 1.5
      vertex 0 1 1.5
      vertex 0 0 1.5
    endloop
  endfacet
endsolid OpenSCAD_Model
