solid OpenSCAD_Model
  facet normal 1 -0 0
    outer loop
      vertex 5 -2 2
      vertex 5 0 1.6
      vertex 5 0 2
    endloop
  endfacet
  facet normal 1 0 0
    outer loop
      vertex 5 0 1.6
      vertex 5 -2 2
      vertex 5 -2 1.6
    endloop
  endfacet
  facet normal 1 -0 0
    outer loop
      vertex 5 -2 0.599999
      vertex 5 0 0
      vertex 5 0 0.599999
    endloop
  endfacet
  facet normal 1 0 0
    outer loop
      vertex 5 0 0
      vertex 5 -2 0.599999
      vertex 5 -2 0
    endloop
  endfacet
  facet normal 0 0 1
    outer loop
      vertex 5 15.75 2
      vertex 2 13.75 2
      vertex 5 13.75 2
    endloop
  endfacet
  facet normal 0 0 1
    outer loop
      vertex 2 13.75 2
      vertex 0 15.75 2
      vertex 2 0 2
    endloop
  endfacet
  facet normal -0 0 1
    outer loop
      vertex 0 15.75 2
      vertex 2 13.75 2
      vertex 5 15.75 2
    endloop
  endfacet
  facet normal -0 0 1
    outer loop
      vertex 2 0 2
      vertex 5 -2 2
      vertex 5 0 2
    endloop
  endfacet
  facet normal 0 0 1
    outer loop
      vertex 2 0 2
      vertex 0 -2 2
      vertex 5 -2 2
    endloop
  endfacet
  facet normal 0 0 1
    outer loop
      vertex 0 -2 2
      vertex 2 0 2
      vertex 0 15.75 2
    endloop
  endfacet
  facet normal 0 0 -1
    outer loop
      vertex 5 -2 0
      vertex 2 0 0
      vertex 5 0 0
    endloop
  endfacet
  facet normal -0 0 -1
    outer loop
      vertex 2 0 0
      vertex 0 -2 0
      vertex 2 13.75 0
    endloop
  endfacet
  facet normal 0 0 -1
    outer loop
      vertex 0 -2 0
      vertex 2 0 0
      vertex 5 -2 0
    endloop
  endfacet
  facet normal 0 0 -1
    outer loop
      vertex 2 13.75 0
      vertex 5 15.75 0
      vertex 5 13.75 0
    endloop
  endfacet
  facet normal 0 0 -1
    outer loop
      vertex 2 13.75 0
      vertex 0 15.75 0
      vertex 5 15.75 0
    endloop
  endfacet
  facet normal 0 0 -1
    outer loop
      vertex 0 15.75 0
      vertex 2 13.75 0
      vertex 0 -2 0
    endloop
  endfacet
  facet normal -1 0 0
    outer loop
      vertex 0 -2 0
      vertex 0 15.75 2
      vertex 0 15.75 0
    endloop
  endfacet
  facet normal -1 -0 0
    outer loop
      vertex 0 15.75 2
      vertex 0 -2 0
      vertex 0 -2 2
    endloop
  endfacet
  facet normal 0 1 0
    outer loop
      vertex 5 0 0.599999
      vertex 5 0 0
      vertex 2.1 0 0.599999
    endloop
  endfacet
  facet normal 0 1 0
    outer loop
      vertex 2.1 0 1.6
      vertex 5 0 2
      vertex 5 0 1.6
    endloop
  endfacet
  facet normal 0 1 0
    outer loop
      vertex 5 0 2
      vertex 2.1 0 1.6
      vertex 2 0 2
    endloop
  endfacet
  facet normal 0 1 -0
    outer loop
      vertex 2.1 0 0.599999
      vertex 2 0 2
      vertex 2.1 0 1.6
    endloop
  endfacet
  facet normal 0 1 0
    outer loop
      vertex 2.1 0 0.599999
      vertex 2 0 0
      vertex 2 0 2
    endloop
  endfacet
  facet normal 0 1 0
    outer loop
      vertex 2 0 0
      vertex 2.1 0 0.599999
      vertex 5 0 0
    endloop
  endfacet
  facet normal 0 -1 0
    outer loop
      vertex 0 -2 2
      vertex 2.1 -2 1.6
      vertex 5 -2 2
    endloop
  endfacet
  facet normal 0 -1 0
    outer loop
      vertex 0 -2 2
      vertex 2.1 -2 0.599999
      vertex 2.1 -2 1.6
    endloop
  endfacet
  facet normal 0 -1 0
    outer loop
      vertex 0 -2 0
      vertex 2.1 -2 0.599999
      vertex 0 -2 2
    endloop
  endfacet
  facet normal 0 -1 0
    outer loop
      vertex 5 -2 0
      vertex 2.1 -2 0.599999
      vertex 0 -2 0
    endloop
  endfacet
  facet normal 0 -1 0
    outer loop
      vertex 2.1 -2 0.599999
      vertex 5 -2 0
      vertex 5 -2 0.599999
    endloop
  endfacet
  facet normal 0 -1 -0
    outer loop
      vertex 5 -2 2
      vertex 2.1 -2 1.6
      vertex 5 -2 1.6
    endloop
  endfacet
  facet normal 0 0 -1
    outer loop
      vertex 2.1 -2 1.6
      vertex 5 0 1.6
      vertex 5 -2 1.6
    endloop
  endfacet
  facet normal -0 0 -1
    outer loop
      vertex 5 0 1.6
      vertex 2.1 -2 1.6
      vertex 2.1 0 1.6
    endloop
  endfacet
  facet normal -0 0 1
    outer loop
      vertex 2.1 0 0.599999
      vertex 5 -2 0.599999
      vertex 5 0 0.599999
    endloop
  endfacet
  facet normal 0 0 1
    outer loop
      vertex 5 -2 0.599999
      vertex 2.1 0 0.599999
      vertex 2.1 -2 0.599999
    endloop
  endfacet
  facet normal 1 -0 0
    outer loop
      vertex 2.1 -2 1.6
      vertex 2.1 0 0.599999
      vertex 2.1 0 1.6
    endloop
  endfacet
  facet normal 1 0 0
    outer loop
      vertex 2.1 0 0.599999
      vertex 2.1 -2 1.6
      vertex 2.1 -2 0.599999
    endloop
  endfacet
  facet normal 1 -0 0
    outer loop
      vertex 5 13.75 2
      vertex 5 15.75 1.6
      vertex 5 15.75 2
    endloop
  endfacet
  facet normal 1 0 0
    outer loop
      vertex 5 15.75 1.6
      vertex 5 13.75 2
      vertex 5 13.75 1.6
    endloop
  endfacet
  facet normal 1 -0 0
    outer loop
      vertex 5 13.75 0.599999
      vertex 5 15.75 0
      vertex 5 15.75 0.599999
    endloop
  endfacet
  facet normal 1 0 0
    outer loop
      vertex 5 15.75 0
      vertex 5 13.75 0.599999
      vertex 5 13.75 0
    endloop
  endfacet
  facet normal 0 1 0
    outer loop
      vertex 5 15.75 0.599999
      vertex 5 15.75 0
      vertex 2.1 15.75 0.599999
    endloop
  endfacet
  facet normal 0 1 0
    outer loop
      vertex 2.1 15.75 1.6
      vertex 5 15.75 2
      vertex 5 15.75 1.6
    endloop
  endfacet
  facet normal 0 1 0
    outer loop
      vertex 5 15.75 2
      vertex 2.1 15.75 1.6
      vertex 0 15.75 2
    endloop
  endfacet
  facet normal 0 1 -0
    outer loop
      vertex 2.1 15.75 0.599999
      vertex 0 15.75 2
      vertex 2.1 15.75 1.6
    endloop
  endfacet
  facet normal 0 1 0
    outer loop
      vertex 2.1 15.75 0.599999
      vertex 0 15.75 0
      vertex 0 15.75 2
    endloop
  endfacet
  facet normal 0 1 0
    outer loop
      vertex 0 15.75 0
      vertex 2.1 15.75 0.599999
      vertex 5 15.75 0
    endloop
  endfacet
  facet normal 0 -1 0
    outer loop
      vertex 2 13.75 2
      vertex 2.1 13.75 1.6
      vertex 5 13.75 2
    endloop
  endfacet
  facet normal 0 -1 0
    outer loop
      vertex 2 13.75 2
      vertex 2.1 13.75 0.599999
      vertex 2.1 13.75 1.6
    endloop
  endfacet
  facet normal 0 -1 0
    outer loop
      vertex 2 13.75 0
      vertex 2.1 13.75 0.599999
      vertex 2 13.75 2
    endloop
  endfacet
  facet normal 0 -1 0
    outer loop
      vertex 5 13.75 0
      vertex 2.1 13.75 0.599999
      vertex 2 13.75 0
    endloop
  endfacet
  facet normal 0 -1 0
    outer loop
      vertex 2.1 13.75 0.599999
      vertex 5 13.75 0
      vertex 5 13.75 0.599999
    endloop
  endfacet
  facet normal 0 -1 -0
    outer loop
      vertex 5 13.75 2
      vertex 2.1 13.75 1.6
      vertex 5 13.75 1.6
    endloop
  endfacet
  facet normal 0 0 -1
    outer loop
      vertex 2.1 13.75 1.6
      vertex 5 15.75 1.6
      vertex 5 13.75 1.6
    endloop
  endfacet
  facet normal -0 0 -1
    outer loop
      vertex 5 15.75 1.6
      vertex 2.1 13.75 1.6
      vertex 2.1 15.75 1.6
    endloop
  endfacet
  facet normal -0 0 1
    outer loop
      vertex 2.1 15.75 0.599999
      vertex 5 13.75 0.599999
      vertex 5 15.75 0.599999
    endloop
  endfacet
  facet normal 0 0 1
    outer loop
      vertex 5 13.75 0.599999
      vertex 2.1 15.75 0.599999
      vertex 2.1 13.75 0.599999
    endloop
  endfacet
  facet normal 1 -0 0
    outer loop
      vertex 2.1 13.75 1.6
      vertex 2.1 15.75 0.599999
      vertex 2.1 15.75 1.6
    endloop
  endfacet
  facet normal 1 0 0
    outer loop
      vertex 2.1 15.75 0.599999
      vertex 2.1 13.75 1.6
      vertex 2.1 13.75 0.599999
    endloop
  endfacet
  facet normal 1 -0 0
    outer loop
      vertex 2 0 2
      vertex 2 13.75 0
      vertex 2 13.75 2
    endloop
  endfacet
  facet normal 1 0 0
    outer loop
      vertex 2 13.75 0
      vertex 2 0 2
      vertex 2 0 0
    endloop
  endfacet
endsolid OpenSCAD_Model
