solid OpenSCAD_Model
  facet normal 1 -0 0
    outer loop
      vertex 3 0 0.5
      vertex 3 7 0
      vertex 3 7 0.5
    endloop
  endfacet
  facet normal 1 0 0
    outer loop
      vertex 3 7 0
      vertex 3 0 0.5
      vertex 3 0 0
    endloop
  endfacet
  facet normal -0 0 1
    outer loop
      vertex 2.98817 6.812 0.5
      vertex 3 0 0.5
      vertex 3 7 0.5
    endloop
  endfacet
  facet normal 0 0 1
    outer loop
      vertex 2.98817 6.812 0.5
      vertex 2.98817 0.188 0.5
      vertex 3 0 0.5
    endloop
  endfacet
  facet normal -0 0 1
    outer loop
      vertex 2.95287 6.62696 0.5
      vertex 2.98817 0.188 0.5
      vertex 2.98817 6.812 0.5
    endloop
  endfacet
  facet normal 0 0 1
    outer loop
      vertex 2.95287 6.62696 0.5
      vertex 2.95287 0.373034 0.5
      vertex 2.98817 0.188 0.5
    endloop
  endfacet
  facet normal -0 0 1
    outer loop
      vertex 2.89466 6.44781 0.5
      vertex 2.95287 0.373034 0.5
      vertex 2.95287 6.62696 0.5
    endloop
  endfacet
  facet normal 0 0 1
    outer loop
      vertex 2.89466 6.44781 0.5
      vertex 2.89466 0.552186 0.5
      vertex 2.95287 0.373034 0.5
    endloop
  endfacet
  facet normal -0 0 1
    outer loop
      vertex 2.81446 6.27737 0.5
      vertex 2.89466 0.552186 0.5
      vertex 2.89466 6.44781 0.5
    endloop
  endfacet
  facet normal 0 0 1
    outer loop
      vertex 2.81446 6.27737 0.5
      vertex 2.81446 0.722631 0.5
      vertex 2.89466 0.552186 0.5
    endloop
  endfacet
  facet normal -0 0 1
    outer loop
      vertex 2.71352 6.11832 0.5
      vertex 2.81446 0.722631 0.5
      vertex 2.81446 6.27737 0.5
    endloop
  endfacet
  facet normal 0 0 1
    outer loop
      vertex 2.71352 6.11832 0.5
      vertex 2.71352 0.881678 0.5
      vertex 2.81446 0.722631 0.5
    endloop
  endfacet
  facet normal -0 0 1
    outer loop
      vertex 2.59345 5.97318 0.5
      vertex 2.71352 0.881678 0.5
      vertex 2.71352 6.11832 0.5
    endloop
  endfacet
  facet normal 0 0 1
    outer loop
      vertex 2.59345 5.97318 0.5
      vertex 2.59345 1.02682 0.5
      vertex 2.71352 0.881678 0.5
    endloop
  endfacet
  facet normal -0 0 1
    outer loop
      vertex 2.45614 5.84423 0.5
      vertex 2.59345 1.02682 0.5
      vertex 2.59345 5.97318 0.5
    endloop
  endfacet
  facet normal 0 0 1
    outer loop
      vertex 2.45614 5.84423 0.5
      vertex 2.45614 1.15577 0.5
      vertex 2.59345 1.02682 0.5
    endloop
  endfacet
  facet normal -0 0 1
    outer loop
      vertex 2.30374 5.73351 0.5
      vertex 2.45614 1.15577 0.5
      vertex 2.45614 5.84423 0.5
    endloop
  endfacet
  facet normal 0 0 1
    outer loop
      vertex 2.30374 5.73351 0.5
      vertex 2.30374 1.26649 0.5
      vertex 2.45614 1.15577 0.5
    endloop
  endfacet
  facet normal -0 0 1
    outer loop
      vertex 2.13867 5.64276 0.5
      vertex 2.30374 1.26649 0.5
      vertex 2.30374 5.73351 0.5
    endloop
  endfacet
  facet normal 0 0 1
    outer loop
      vertex 2.13867 5.64276 0.5
      vertex 2.13867 1.35724 0.5
      vertex 2.30374 1.26649 0.5
    endloop
  endfacet
  facet normal -0 0 1
    outer loop
      vertex 1.96352 5.57341 0.5
      vertex 2.13867 1.35724 0.5
      vertex 2.13867 5.64276 0.5
    endloop
  endfacet
  facet normal 0 0 1
    outer loop
      vertex 1.96352 5.57341 0.5
      vertex 1.96352 1.42658 0.5
      vertex 2.13867 1.35724 0.5
    endloop
  endfacet
  facet normal -0 0 1
    outer loop
      vertex 1.78107 5.52657 0.5
      vertex 1.96352 1.42658 0.5
      vertex 1.96352 5.57341 0.5
    endloop
  endfacet
  facet normal 0 0 1
    outer loop
      vertex 1.78107 5.52657 0.5
      vertex 1.78107 1.47343 0.5
      vertex 1.96352 1.42658 0.5
    endloop
  endfacet
  facet normal -0 0 1
    outer loop
      vertex 1.59418 5.50296 0.5
      vertex 1.78107 1.47343 0.5
      vertex 1.78107 5.52657 0.5
    endloop
  endfacet
  facet normal 0 0 1
    outer loop
      vertex 1.59418 5.50296 0.5
      vertex 1.59418 1.49704 0.5
      vertex 1.78107 1.47343 0.5
    endloop
  endfacet
  facet normal -0 0 1
    outer loop
      vertex 1.40581 5.50296 0.5
      vertex 1.59418 1.49704 0.5
      vertex 1.59418 5.50296 0.5
    endloop
  endfacet
  facet normal 0 0 1
    outer loop
      vertex 1.40581 5.50296 0.5
      vertex 1.40581 1.49704 0.5
      vertex 1.59418 1.49704 0.5
    endloop
  endfacet
  facet normal 0 0 1
    outer loop
      vertex 1.21893 5.52657 0.5
      vertex 1.40581 1.49704 0.5
      vertex 1.40581 5.50296 0.5
    endloop
  endfacet
  facet normal 0 0 1
    outer loop
      vertex 1.21893 5.52657 0.5
      vertex 1.21893 1.47343 0.5
      vertex 1.40581 1.49704 0.5
    endloop
  endfacet
  facet normal 0 0 1
    outer loop
      vertex 1.03647 5.57341 0.5
      vertex 1.21893 1.47343 0.5
      vertex 1.21893 5.52657 0.5
    endloop
  endfacet
  facet normal 0 0 1
    outer loop
      vertex 1.03647 5.57341 0.5
      vertex 1.03647 1.42658 0.5
      vertex 1.21893 1.47343 0.5
    endloop
  endfacet
  facet normal 0 0 1
    outer loop
      vertex 0.861331 5.64276 0.5
      vertex 1.03647 1.42658 0.5
      vertex 1.03647 5.57341 0.5
    endloop
  endfacet
  facet normal 0 0 1
    outer loop
      vertex 0.861331 5.64276 0.5
      vertex 0.861331 1.35724 0.5
      vertex 1.03647 1.42658 0.5
    endloop
  endfacet
  facet normal 0 0 1
    outer loop
      vertex 0.696259 5.73351 0.5
      vertex 0.861331 1.35724 0.5
      vertex 0.861331 5.64276 0.5
    endloop
  endfacet
  facet normal 0 0 1
    outer loop
      vertex 0.696259 5.73351 0.5
      vertex 0.696259 1.26649 0.5
      vertex 0.861331 1.35724 0.5
    endloop
  endfacet
  facet normal 0 0 1
    outer loop
      vertex 0.543863 5.84423 0.5
      vertex 0.696259 1.26649 0.5
      vertex 0.696259 5.73351 0.5
    endloop
  endfacet
  facet normal 0 0 1
    outer loop
      vertex 0.543863 5.84423 0.5
      vertex 0.543863 1.15577 0.5
      vertex 0.696259 1.26649 0.5
    endloop
  endfacet
  facet normal 0 0 1
    outer loop
      vertex 0.406547 5.97318 0.5
      vertex 0.543863 1.15577 0.5
      vertex 0.543863 5.84423 0.5
    endloop
  endfacet
  facet normal 0 0 1
    outer loop
      vertex 0.406547 5.97318 0.5
      vertex 0.406547 1.02682 0.5
      vertex 0.543863 1.15577 0.5
    endloop
  endfacet
  facet normal 0 0 1
    outer loop
      vertex 0.286474 6.11832 0.5
      vertex 0.406547 1.02682 0.5
      vertex 0.406547 5.97318 0.5
    endloop
  endfacet
  facet normal 0 0 1
    outer loop
      vertex 0.286474 6.11832 0.5
      vertex 0.286474 0.881678 0.5
      vertex 0.406547 1.02682 0.5
    endloop
  endfacet
  facet normal 0 0 1
    outer loop
      vertex 0.185539 6.27737 0.5
      vertex 0.286474 0.881678 0.5
      vertex 0.286474 6.11832 0.5
    endloop
  endfacet
  facet normal 0 0 1
    outer loop
      vertex 0.185539 6.27737 0.5
      vertex 0.185539 0.722631 0.5
      vertex 0.286474 0.881678 0.5
    endloop
  endfacet
  facet normal 0 0 1
    outer loop
      vertex 0.105335 6.44781 0.5
      vertex 0.185539 0.722631 0.5
      vertex 0.185539 6.27737 0.5
    endloop
  endfacet
  facet normal 0 0 1
    outer loop
      vertex 0.105335 6.44781 0.5
      vertex 0.105335 0.552186 0.5
      vertex 0.185539 0.722631 0.5
    endloop
  endfacet
  facet normal 0 0 1
    outer loop
      vertex 0.0471249 6.62696 0.5
      vertex 0.105335 0.552186 0.5
      vertex 0.105335 6.44781 0.5
    endloop
  endfacet
  facet normal 0 0 1
    outer loop
      vertex 0.0471249 6.62696 0.5
      vertex 0.0471249 0.373034 0.5
      vertex 0.105335 0.552186 0.5
    endloop
  endfacet
  facet normal 0 0 1
    outer loop
      vertex 0.0118275 6.812 0.5
      vertex 0.0471249 0.373034 0.5
      vertex 0.0471249 6.62696 0.5
    endloop
  endfacet
  facet normal 0 0 1
    outer loop
      vertex 0.0118275 6.812 0.5
      vertex 0.0118275 0.188 0.5
      vertex 0.0471249 0.373034 0.5
    endloop
  endfacet
  facet normal 0 0 1
    outer loop
      vertex 0 7 0.5
      vertex 0.0118275 0.188 0.5
      vertex 0.0118275 6.812 0.5
    endloop
  endfacet
  facet normal 0 0 1
    outer loop
      vertex 0.0118275 0.188 0.5
      vertex 0 7 0.5
      vertex 0 0 0.5
    endloop
  endfacet
  facet normal 0 0 -1
    outer loop
      vertex 0 0 0
      vertex 3 0 0
      vertex 2.98817 -0.188 0
    endloop
  endfacet
  facet normal 0 0 -1
    outer loop
      vertex 3 0 0
      vertex 0 0 0
      vertex 3 7 0
    endloop
  endfacet
  facet normal 0 0 -1
    outer loop
      vertex 0 0 0
      vertex 2.98817 -0.188 0
      vertex 2.95287 -0.373034 0
    endloop
  endfacet
  facet normal 0 0 -1
    outer loop
      vertex 0 7 0
      vertex 3 7 0
      vertex 0 0 0
    endloop
  endfacet
  facet normal 0 0 -1
    outer loop
      vertex 0 0 0
      vertex 2.95287 -0.373034 0
      vertex 2.89466 -0.552186 0
    endloop
  endfacet
  facet normal 0 0 -1
    outer loop
      vertex 3 7 0
      vertex 0 7 0
      vertex 2.98817 7.188 0
    endloop
  endfacet
  facet normal 0 0 -1
    outer loop
      vertex 0 0 0
      vertex 2.89466 -0.552186 0
      vertex 2.81446 -0.722631 0
    endloop
  endfacet
  facet normal -0 0 -1
    outer loop
      vertex 2.98817 7.188 0
      vertex 0 7 0
      vertex 2.95287 7.37303 0
    endloop
  endfacet
  facet normal 0 0 -1
    outer loop
      vertex 0 0 0
      vertex 2.81446 -0.722631 0
      vertex 2.71352 -0.881678 0
    endloop
  endfacet
  facet normal -0 0 -1
    outer loop
      vertex 2.95287 7.37303 0
      vertex 0 7 0
      vertex 2.89466 7.55219 0
    endloop
  endfacet
  facet normal 0 0 -1
    outer loop
      vertex 0 0 0
      vertex 2.71352 -0.881678 0
      vertex 2.59345 -1.02682 0
    endloop
  endfacet
  facet normal -0 0 -1
    outer loop
      vertex 2.89466 7.55219 0
      vertex 0 7 0
      vertex 2.81446 7.72263 0
    endloop
  endfacet
  facet normal 0 0 -1
    outer loop
      vertex 0 0 0
      vertex 2.59345 -1.02682 0
      vertex 2.45614 -1.15577 0
    endloop
  endfacet
  facet normal -0 0 -1
    outer loop
      vertex 2.81446 7.72263 0
      vertex 0 7 0
      vertex 2.71352 7.88168 0
    endloop
  endfacet
  facet normal 0 0 -1
    outer loop
      vertex 0 0 0
      vertex 2.45614 -1.15577 0
      vertex 2.30374 -1.26649 0
    endloop
  endfacet
  facet normal -0 0 -1
    outer loop
      vertex 2.71352 7.88168 0
      vertex 0 7 0
      vertex 2.59345 8.02682 0
    endloop
  endfacet
  facet normal 0 0 -1
    outer loop
      vertex 0 0 0
      vertex 2.30374 -1.26649 0
      vertex 2.13867 -1.35724 0
    endloop
  endfacet
  facet normal -0 0 -1
    outer loop
      vertex 2.59345 8.02682 0
      vertex 0 7 0
      vertex 2.45614 8.15577 0
    endloop
  endfacet
  facet normal 0 0 -1
    outer loop
      vertex 0 0 0
      vertex 2.13867 -1.35724 0
      vertex 1.96352 -1.42658 0
    endloop
  endfacet
  facet normal -0 0 -1
    outer loop
      vertex 2.45614 8.15577 0
      vertex 0 7 0
      vertex 2.30374 8.26649 0
    endloop
  endfacet
  facet normal 0 0 -1
    outer loop
      vertex 0 0 0
      vertex 1.96352 -1.42658 0
      vertex 1.78107 -1.47343 0
    endloop
  endfacet
  facet normal -0 0 -1
    outer loop
      vertex 2.30374 8.26649 0
      vertex 0 7 0
      vertex 2.13867 8.35724 0
    endloop
  endfacet
  facet normal 0 0 -1
    outer loop
      vertex 0 0 0
      vertex 1.78107 -1.47343 0
      vertex 1.59418 -1.49704 0
    endloop
  endfacet
  facet normal -0 0 -1
    outer loop
      vertex 2.13867 8.35724 0
      vertex 0 7 0
      vertex 1.96352 8.42658 0
    endloop
  endfacet
  facet normal 0 0 -1
    outer loop
      vertex 0 0 0
      vertex 1.59418 -1.49704 0
      vertex 1.40581 -1.49704 0
    endloop
  endfacet
  facet normal -0 0 -1
    outer loop
      vertex 1.96352 8.42658 0
      vertex 0 7 0
      vertex 1.78107 8.47343 0
    endloop
  endfacet
  facet normal 0 0 -1
    outer loop
      vertex 0 0 0
      vertex 1.40581 -1.49704 0
      vertex 1.21893 -1.47343 0
    endloop
  endfacet
  facet normal -0 0 -1
    outer loop
      vertex 1.78107 8.47343 0
      vertex 0 7 0
      vertex 1.59418 8.49704 0
    endloop
  endfacet
  facet normal 0 0 -1
    outer loop
      vertex 0 0 0
      vertex 1.21893 -1.47343 0
      vertex 1.03647 -1.42658 0
    endloop
  endfacet
  facet normal -0 0 -1
    outer loop
      vertex 1.59418 8.49704 0
      vertex 0 7 0
      vertex 1.40581 8.49704 0
    endloop
  endfacet
  facet normal 0 0 -1
    outer loop
      vertex 0 0 0
      vertex 1.03647 -1.42658 0
      vertex 0.861331 -1.35724 0
    endloop
  endfacet
  facet normal 0 0 -1
    outer loop
      vertex 1.40581 8.49704 0
      vertex 0 7 0
      vertex 1.21893 8.47343 0
    endloop
  endfacet
  facet normal 0 0 -1
    outer loop
      vertex 0 0 0
      vertex 0.861331 -1.35724 0
      vertex 0.696259 -1.26649 0
    endloop
  endfacet
  facet normal 0 0 -1
    outer loop
      vertex 1.21893 8.47343 0
      vertex 0 7 0
      vertex 1.03647 8.42658 0
    endloop
  endfacet
  facet normal 0 0 -1
    outer loop
      vertex 0 0 0
      vertex 0.696259 -1.26649 0
      vertex 0.543863 -1.15577 0
    endloop
  endfacet
  facet normal 0 0 -1
    outer loop
      vertex 1.03647 8.42658 0
      vertex 0 7 0
      vertex 0.861331 8.35724 0
    endloop
  endfacet
  facet normal 0 0 -1
    outer loop
      vertex 0 0 0
      vertex 0.543863 -1.15577 0
      vertex 0.406547 -1.02682 0
    endloop
  endfacet
  facet normal 0 0 -1
    outer loop
      vertex 0.861331 8.35724 0
      vertex 0 7 0
      vertex 0.696259 8.26649 0
    endloop
  endfacet
  facet normal 0 0 -1
    outer loop
      vertex 0 0 0
      vertex 0.406547 -1.02682 0
      vertex 0.286474 -0.881678 0
    endloop
  endfacet
  facet normal 0 0 -1
    outer loop
      vertex 0.696259 8.26649 0
      vertex 0 7 0
      vertex 0.543863 8.15577 0
    endloop
  endfacet
  facet normal 0 0 -1
    outer loop
      vertex 0 0 0
      vertex 0.286474 -0.881678 0
      vertex 0.185539 -0.722631 0
    endloop
  endfacet
  facet normal 0 0 -1
    outer loop
      vertex 0.543863 8.15577 0
      vertex 0 7 0
      vertex 0.406547 8.02682 0
    endloop
  endfacet
  facet normal 0 0 -1
    outer loop
      vertex 0 0 0
      vertex 0.185539 -0.722631 0
      vertex 0.105335 -0.552186 0
    endloop
  endfacet
  facet normal 0 0 -1
    outer loop
      vertex 0.406547 8.02682 0
      vertex 0 7 0
      vertex 0.286474 7.88168 0
    endloop
  endfacet
  facet normal 0 0 -1
    outer loop
      vertex 0 0 0
      vertex 0.105335 -0.552186 0
      vertex 0.0471249 -0.373034 0
    endloop
  endfacet
  facet normal 0 0 -1
    outer loop
      vertex 0.286474 7.88168 0
      vertex 0 7 0
      vertex 0.185539 7.72263 0
    endloop
  endfacet
  facet normal 0 0 -1
    outer loop
      vertex 0 0 0
      vertex 0.0471249 -0.373034 0
      vertex 0.0118275 -0.188 0
    endloop
  endfacet
  facet normal 0 0 -1
    outer loop
      vertex 0.185539 7.72263 0
      vertex 0 7 0
      vertex 0.105335 7.55219 0
    endloop
  endfacet
  facet normal 0 0 -1
    outer loop
      vertex 0.105335 7.55219 0
      vertex 0 7 0
      vertex 0.0471249 7.37303 0
    endloop
  endfacet
  facet normal 0 0 -1
    outer loop
      vertex 0.0471249 7.37303 0
      vertex 0 7 0
      vertex 0.0118275 7.188 0
    endloop
  endfacet
  facet normal -1 0 0
    outer loop
      vertex 0 0 0
      vertex 0 7 0.5
      vertex 0 7 0
    endloop
  endfacet
  facet normal -1 -0 0
    outer loop
      vertex 0 7 0.5
      vertex 0 0 0
      vertex 0 0 0.5
    endloop
  endfacet
  facet normal 0.904838 0.425756 0
    outer loop
      vertex 2.89466 0.552186 3
      vertex 2.81446 0.722631 0.5
      vertex 2.81446 0.722631 3
    endloop
  endfacet
  facet normal 0.904838 0.425756 0
    outer loop
      vertex 2.81446 0.722631 0.5
      vertex 2.89466 0.552186 3
      vertex 2.89466 0.552186 0.5
    endloop
  endfacet
  facet normal 0.982284 0.187396 0
    outer loop
      vertex 2.98817 0.188 3
      vertex 2.95287 0.373034 0.5
      vertex 2.95287 0.373034 3
    endloop
  endfacet
  facet normal 0.982284 0.187396 0
    outer loop
      vertex 2.95287 0.373034 0.5
      vertex 2.98817 0.188 3
      vertex 2.98817 0.188 0.5
    endloop
  endfacet
  facet normal 0.998026 0.0628013 0
    outer loop
      vertex 3 0 3
      vertex 2.98817 0.188 0.5
      vertex 2.98817 0.188 3
    endloop
  endfacet
  facet normal 0.998026 0.0628013 0
    outer loop
      vertex 2.98817 0.188 0.5
      vertex 3 0 3
      vertex 3 0 0.5
    endloop
  endfacet
  facet normal 0.770518 0.637418 0
    outer loop
      vertex 2.71352 0.881678 3
      vertex 2.59345 1.02682 0.5
      vertex 2.59345 1.02682 3
    endloop
  endfacet
  facet normal 0.770518 0.637418 0
    outer loop
      vertex 2.59345 1.02682 0.5
      vertex 2.71352 0.881678 3
      vertex 2.71352 0.881678 0.5
    endloop
  endfacet
  facet normal 0.125335 0.992115 -0
    outer loop
      vertex 1.78107 1.47343 0.5
      vertex 1.59418 1.49704 3
      vertex 1.78107 1.47343 3
    endloop
  endfacet
  facet normal 0.125335 0.992115 0
    outer loop
      vertex 1.59418 1.49704 3
      vertex 1.78107 1.47343 0.5
      vertex 1.59418 1.49704 0.5
    endloop
  endfacet
  facet normal -0.982287 -0.187383 0
    outer loop
      vertex 0.0471249 -0.373034 0
      vertex 0.0118275 -0.188 3
      vertex 0.0118275 -0.188 0
    endloop
  endfacet
  facet normal -0.982287 -0.187383 0
    outer loop
      vertex 0.0118275 -0.188 3
      vertex 0.0471249 -0.373034 0
      vertex 0.0471249 -0.373034 3
    endloop
  endfacet
  facet normal -0.998027 -0.0627881 0
    outer loop
      vertex 0.0118275 -0.188 0
      vertex 0 0 0.5
      vertex 0 0 0
    endloop
  endfacet
  facet normal -0.998027 -0.0627881 -0
    outer loop
      vertex 0.0118275 -0.188 3
      vertex 0 0 0.5
      vertex 0.0118275 -0.188 0
    endloop
  endfacet
  facet normal -0.998027 -0.0627881 0
    outer loop
      vertex 0 0 0.5
      vertex 0.0118275 -0.188 3
      vertex 0 0 3
    endloop
  endfacet
  facet normal 0.998026 -0.0628013 0
    outer loop
      vertex 2.98817 -0.188 3
      vertex 3 0 0.5
      vertex 3 0 3
    endloop
  endfacet
  facet normal 0.998026 -0.0628013 0
    outer loop
      vertex 2.98817 -0.188 0
      vertex 3 0 0.5
      vertex 2.98817 -0.188 3
    endloop
  endfacet
  facet normal 0.998026 -0.0628013 0
    outer loop
      vertex 3 0 0.5
      vertex 2.98817 -0.188 0
      vertex 3 0 0
    endloop
  endfacet
  facet normal -0.77051 -0.637427 0
    outer loop
      vertex 0.406547 -1.02682 0
      vertex 0.286474 -0.881678 3
      vertex 0.286474 -0.881678 0
    endloop
  endfacet
  facet normal -0.77051 -0.637427 0
    outer loop
      vertex 0.286474 -0.881678 3
      vertex 0.406547 -1.02682 0
      vertex 0.406547 -1.02682 3
    endloop
  endfacet
  facet normal -0.248701 -0.96858 0
    outer loop
      vertex 1.03647 -1.42658 0
      vertex 1.21893 -1.47343 3
      vertex 1.03647 -1.42658 3
    endloop
  endfacet
  facet normal -0.248701 -0.96858 -0
    outer loop
      vertex 1.21893 -1.47343 3
      vertex 1.03647 -1.42658 0
      vertex 1.21893 -1.47343 0
    endloop
  endfacet
  facet normal 0.248714 -0.968577 0
    outer loop
      vertex 1.78107 -1.47343 0
      vertex 1.96352 -1.42658 3
      vertex 1.78107 -1.47343 3
    endloop
  endfacet
  facet normal 0.248714 -0.968577 0
    outer loop
      vertex 1.96352 -1.42658 3
      vertex 1.78107 -1.47343 0
      vertex 1.96352 -1.42658 0
    endloop
  endfacet
  facet normal 0.951057 0.309017 0
    outer loop
      vertex 2.95287 0.373034 3
      vertex 2.89466 0.552186 0.5
      vertex 2.89466 0.552186 3
    endloop
  endfacet
  facet normal 0.951057 0.309017 0
    outer loop
      vertex 2.89466 0.552186 0.5
      vertex 2.95287 0.373034 3
      vertex 2.95287 0.373034 0.5
    endloop
  endfacet
  facet normal 0.481762 -0.876302 0
    outer loop
      vertex 2.13867 -1.35724 0
      vertex 2.30374 -1.26649 3
      vertex 2.13867 -1.35724 3
    endloop
  endfacet
  facet normal 0.481762 -0.876302 0
    outer loop
      vertex 2.30374 -1.26649 3
      vertex 2.13867 -1.35724 0
      vertex 2.30374 -1.26649 0
    endloop
  endfacet
  facet normal -0.587778 0.809022 0
    outer loop
      vertex 0.696259 1.26649 0.5
      vertex 0.543863 1.15577 3
      vertex 0.696259 1.26649 3
    endloop
  endfacet
  facet normal -0.587778 0.809022 0
    outer loop
      vertex 0.543863 1.15577 3
      vertex 0.696259 1.26649 0.5
      vertex 0.543863 1.15577 0.5
    endloop
  endfacet
  facet normal 0.844314 -0.535848 0
    outer loop
      vertex 2.71352 -0.881678 3
      vertex 2.81446 -0.722631 0
      vertex 2.81446 -0.722631 3
    endloop
  endfacet
  facet normal 0.844314 -0.535848 0
    outer loop
      vertex 2.81446 -0.722631 0
      vertex 2.71352 -0.881678 3
      vertex 2.71352 -0.881678 0
    endloop
  endfacet
  facet normal 0.684568 -0.728949 0
    outer loop
      vertex 2.45614 -1.15577 0
      vertex 2.59345 -1.02682 3
      vertex 2.45614 -1.15577 3
    endloop
  endfacet
  facet normal 0.684568 -0.728949 0
    outer loop
      vertex 2.59345 -1.02682 3
      vertex 2.45614 -1.15577 0
      vertex 2.59345 -1.02682 0
    endloop
  endfacet
  facet normal -0.125341 0.992114 0
    outer loop
      vertex 1.40581 1.49704 0.5
      vertex 1.21893 1.47343 3
      vertex 1.40581 1.49704 3
    endloop
  endfacet
  facet normal -0.125341 0.992114 0
    outer loop
      vertex 1.21893 1.47343 3
      vertex 1.40581 1.49704 0.5
      vertex 1.21893 1.47343 0.5
    endloop
  endfacet
  facet normal -0.587778 -0.809022 0
    outer loop
      vertex 0.543863 -1.15577 0
      vertex 0.696259 -1.26649 3
      vertex 0.543863 -1.15577 3
    endloop
  endfacet
  facet normal -0.587778 -0.809022 -0
    outer loop
      vertex 0.696259 -1.26649 3
      vertex 0.543863 -1.15577 0
      vertex 0.696259 -1.26649 0
    endloop
  endfacet
  facet normal -0.684552 -0.728964 0
    outer loop
      vertex 0.406547 -1.02682 0
      vertex 0.543863 -1.15577 3
      vertex 0.406547 -1.02682 3
    endloop
  endfacet
  facet normal -0.684552 -0.728964 -0
    outer loop
      vertex 0.543863 -1.15577 3
      vertex 0.406547 -1.02682 0
      vertex 0.543863 -1.15577 0
    endloop
  endfacet
  facet normal 0.844314 0.535848 0
    outer loop
      vertex 2.81446 0.722631 3
      vertex 2.71352 0.881678 0.5
      vertex 2.71352 0.881678 3
    endloop
  endfacet
  facet normal 0.844314 0.535848 0
    outer loop
      vertex 2.71352 0.881678 0.5
      vertex 2.81446 0.722631 3
      vertex 2.81446 0.722631 0.5
    endloop
  endfacet
  facet normal 0.684568 0.728949 -0
    outer loop
      vertex 2.59345 1.02682 0.5
      vertex 2.45614 1.15577 3
      vertex 2.59345 1.02682 3
    endloop
  endfacet
  facet normal 0.684568 0.728949 0
    outer loop
      vertex 2.45614 1.15577 3
      vertex 2.59345 1.02682 0.5
      vertex 2.45614 1.15577 0.5
    endloop
  endfacet
  facet normal 0.368093 0.929789 -0
    outer loop
      vertex 2.13867 1.35724 0.5
      vertex 1.96352 1.42658 3
      vertex 2.13867 1.35724 3
    endloop
  endfacet
  facet normal 0.368093 0.929789 0
    outer loop
      vertex 1.96352 1.42658 3
      vertex 2.13867 1.35724 0.5
      vertex 1.96352 1.42658 0.5
    endloop
  endfacet
  facet normal -0.368113 0.929781 0
    outer loop
      vertex 1.03647 1.42658 0.5
      vertex 0.861331 1.35724 3
      vertex 1.03647 1.42658 3
    endloop
  endfacet
  facet normal -0.368113 0.929781 0
    outer loop
      vertex 0.861331 1.35724 3
      vertex 1.03647 1.42658 0.5
      vertex 0.861331 1.35724 0.5
    endloop
  endfacet
  facet normal -0.844326 -0.535829 0
    outer loop
      vertex 0.286474 -0.881678 0
      vertex 0.185539 -0.722631 3
      vertex 0.185539 -0.722631 0
    endloop
  endfacet
  facet normal -0.844326 -0.535829 0
    outer loop
      vertex 0.185539 -0.722631 3
      vertex 0.286474 -0.881678 0
      vertex 0.286474 -0.881678 3
    endloop
  endfacet
  facet normal 0.951057 -0.309017 0
    outer loop
      vertex 2.89466 -0.552186 3
      vertex 2.95287 -0.373034 0
      vertex 2.95287 -0.373034 3
    endloop
  endfacet
  facet normal 0.951057 -0.309017 0
    outer loop
      vertex 2.95287 -0.373034 0
      vertex 2.89466 -0.552186 3
      vertex 2.89466 -0.552186 0
    endloop
  endfacet
  facet normal 0.587768 0.80903 -0
    outer loop
      vertex 2.45614 1.15577 0.5
      vertex 2.30374 1.26649 3
      vertex 2.45614 1.15577 3
    endloop
  endfacet
  facet normal 0.587768 0.80903 0
    outer loop
      vertex 2.30374 1.26649 3
      vertex 2.45614 1.15577 0.5
      vertex 2.30374 1.26649 0.5
    endloop
  endfacet
  facet normal 0.481762 0.876302 -0
    outer loop
      vertex 2.30374 1.26649 0.5
      vertex 2.13867 1.35724 3
      vertex 2.30374 1.26649 3
    endloop
  endfacet
  facet normal 0.481762 0.876302 0
    outer loop
      vertex 2.13867 1.35724 3
      vertex 2.30374 1.26649 0.5
      vertex 2.13867 1.35724 0.5
    endloop
  endfacet
  facet normal -0.90483 -0.425774 0
    outer loop
      vertex 0.185539 -0.722631 0
      vertex 0.105335 -0.552186 3
      vertex 0.105335 -0.552186 0
    endloop
  endfacet
  facet normal -0.90483 -0.425774 0
    outer loop
      vertex 0.105335 -0.552186 3
      vertex 0.185539 -0.722631 0
      vertex 0.185539 -0.722631 3
    endloop
  endfacet
  facet normal -0.125341 -0.992114 0
    outer loop
      vertex 1.21893 -1.47343 0
      vertex 1.40581 -1.49704 3
      vertex 1.21893 -1.47343 3
    endloop
  endfacet
  facet normal -0.125341 -0.992114 -0
    outer loop
      vertex 1.40581 -1.49704 3
      vertex 1.21893 -1.47343 0
      vertex 1.40581 -1.49704 0
    endloop
  endfacet
  facet normal 0.125335 -0.992115 0
    outer loop
      vertex 1.59418 -1.49704 0
      vertex 1.78107 -1.47343 3
      vertex 1.59418 -1.49704 3
    endloop
  endfacet
  facet normal 0.125335 -0.992115 0
    outer loop
      vertex 1.78107 -1.47343 3
      vertex 1.59418 -1.49704 0
      vertex 1.78107 -1.47343 0
    endloop
  endfacet
  facet normal -0.90483 0.425774 0
    outer loop
      vertex 0.105335 0.552186 0.5
      vertex 0.185539 0.722631 3
      vertex 0.185539 0.722631 0.5
    endloop
  endfacet
  facet normal -0.90483 0.425774 0
    outer loop
      vertex 0.185539 0.722631 3
      vertex 0.105335 0.552186 0.5
      vertex 0.105335 0.552186 3
    endloop
  endfacet
  facet normal 0.368093 -0.929789 0
    outer loop
      vertex 1.96352 -1.42658 0
      vertex 2.13867 -1.35724 3
      vertex 1.96352 -1.42658 3
    endloop
  endfacet
  facet normal 0.368093 -0.929789 0
    outer loop
      vertex 2.13867 -1.35724 3
      vertex 1.96352 -1.42658 0
      vertex 2.13867 -1.35724 0
    endloop
  endfacet
  facet normal -0.481757 0.876305 0
    outer loop
      vertex 0.861331 1.35724 0.5
      vertex 0.696259 1.26649 3
      vertex 0.861331 1.35724 3
    endloop
  endfacet
  facet normal -0.481757 0.876305 0
    outer loop
      vertex 0.696259 1.26649 3
      vertex 0.861331 1.35724 0.5
      vertex 0.696259 1.26649 0.5
    endloop
  endfacet
  facet normal -0.248701 0.96858 0
    outer loop
      vertex 1.21893 1.47343 0.5
      vertex 1.03647 1.42658 3
      vertex 1.21893 1.47343 3
    endloop
  endfacet
  facet normal -0.248701 0.96858 0
    outer loop
      vertex 1.03647 1.42658 3
      vertex 1.21893 1.47343 0.5
      vertex 1.03647 1.42658 0.5
    endloop
  endfacet
  facet normal 0.770518 -0.637418 0
    outer loop
      vertex 2.59345 -1.02682 3
      vertex 2.71352 -0.881678 0
      vertex 2.71352 -0.881678 3
    endloop
  endfacet
  facet normal 0.770518 -0.637418 0
    outer loop
      vertex 2.71352 -0.881678 0
      vertex 2.59345 -1.02682 3
      vertex 2.59345 -1.02682 0
    endloop
  endfacet
  facet normal 0 -1 0
    outer loop
      vertex 1.40581 -1.49704 0
      vertex 1.59418 -1.49704 3
      vertex 1.40581 -1.49704 3
    endloop
  endfacet
  facet normal 0 -1 -0
    outer loop
      vertex 1.59418 -1.49704 3
      vertex 1.40581 -1.49704 0
      vertex 1.59418 -1.49704 0
    endloop
  endfacet
  facet normal 0.982284 -0.187396 0
    outer loop
      vertex 2.95287 -0.373034 3
      vertex 2.98817 -0.188 0
      vertex 2.98817 -0.188 3
    endloop
  endfacet
  facet normal 0.982284 -0.187396 0
    outer loop
      vertex 2.98817 -0.188 0
      vertex 2.95287 -0.373034 3
      vertex 2.95287 -0.373034 0
    endloop
  endfacet
  facet normal 0.904838 -0.425756 0
    outer loop
      vertex 2.81446 -0.722631 3
      vertex 2.89466 -0.552186 0
      vertex 2.89466 -0.552186 3
    endloop
  endfacet
  facet normal 0.904838 -0.425756 0
    outer loop
      vertex 2.89466 -0.552186 0
      vertex 2.81446 -0.722631 3
      vertex 2.81446 -0.722631 0
    endloop
  endfacet
  facet normal -0.481757 -0.876305 0
    outer loop
      vertex 0.696259 -1.26649 0
      vertex 0.861331 -1.35724 3
      vertex 0.696259 -1.26649 3
    endloop
  endfacet
  facet normal -0.481757 -0.876305 -0
    outer loop
      vertex 0.861331 -1.35724 3
      vertex 0.696259 -1.26649 0
      vertex 0.861331 -1.35724 0
    endloop
  endfacet
  facet normal -0.982287 0.187383 0
    outer loop
      vertex 0.0118275 0.188 0.5
      vertex 0.0471249 0.373034 3
      vertex 0.0471249 0.373034 0.5
    endloop
  endfacet
  facet normal -0.982287 0.187383 0
    outer loop
      vertex 0.0471249 0.373034 3
      vertex 0.0118275 0.188 0.5
      vertex 0.0118275 0.188 3
    endloop
  endfacet
  facet normal -0.951056 -0.309017 0
    outer loop
      vertex 0.105335 -0.552186 0
      vertex 0.0471249 -0.373034 3
      vertex 0.0471249 -0.373034 0
    endloop
  endfacet
  facet normal -0.951056 -0.309017 0
    outer loop
      vertex 0.0471249 -0.373034 3
      vertex 0.105335 -0.552186 0
      vertex 0.105335 -0.552186 3
    endloop
  endfacet
  facet normal -0.844326 0.535829 0
    outer loop
      vertex 0.185539 0.722631 0.5
      vertex 0.286474 0.881678 3
      vertex 0.286474 0.881678 0.5
    endloop
  endfacet
  facet normal -0.844326 0.535829 0
    outer loop
      vertex 0.286474 0.881678 3
      vertex 0.185539 0.722631 0.5
      vertex 0.185539 0.722631 3
    endloop
  endfacet
  facet normal -0.684552 0.728964 0
    outer loop
      vertex 0.543863 1.15577 0.5
      vertex 0.406547 1.02682 3
      vertex 0.543863 1.15577 3
    endloop
  endfacet
  facet normal -0.684552 0.728964 0
    outer loop
      vertex 0.406547 1.02682 3
      vertex 0.543863 1.15577 0.5
      vertex 0.406547 1.02682 0.5
    endloop
  endfacet
  facet normal 0.248714 0.968577 -0
    outer loop
      vertex 1.96352 1.42658 0.5
      vertex 1.78107 1.47343 3
      vertex 1.96352 1.42658 3
    endloop
  endfacet
  facet normal 0.248714 0.968577 0
    outer loop
      vertex 1.78107 1.47343 3
      vertex 1.96352 1.42658 0.5
      vertex 1.78107 1.47343 0.5
    endloop
  endfacet
  facet normal -0.77051 0.637427 0
    outer loop
      vertex 0.286474 0.881678 0.5
      vertex 0.406547 1.02682 3
      vertex 0.406547 1.02682 0.5
    endloop
  endfacet
  facet normal -0.77051 0.637427 0
    outer loop
      vertex 0.406547 1.02682 3
      vertex 0.286474 0.881678 0.5
      vertex 0.286474 0.881678 3
    endloop
  endfacet
  facet normal -0.998027 0.0627881 0
    outer loop
      vertex 0 0 0.5
      vertex 0.0118275 0.188 3
      vertex 0.0118275 0.188 0.5
    endloop
  endfacet
  facet normal -0.998027 0.0627881 0
    outer loop
      vertex 0.0118275 0.188 3
      vertex 0 0 0.5
      vertex 0 0 3
    endloop
  endfacet
  facet normal 0.587768 -0.80903 0
    outer loop
      vertex 2.30374 -1.26649 0
      vertex 2.45614 -1.15577 3
      vertex 2.30374 -1.26649 3
    endloop
  endfacet
  facet normal 0.587768 -0.80903 0
    outer loop
      vertex 2.45614 -1.15577 3
      vertex 2.30374 -1.26649 0
      vertex 2.45614 -1.15577 0
    endloop
  endfacet
  facet normal 0 1 -0
    outer loop
      vertex 1.59418 1.49704 0.5
      vertex 1.40581 1.49704 3
      vertex 1.59418 1.49704 3
    endloop
  endfacet
  facet normal 0 1 0
    outer loop
      vertex 1.40581 1.49704 3
      vertex 1.59418 1.49704 0.5
      vertex 1.40581 1.49704 0.5
    endloop
  endfacet
  facet normal -0.368113 -0.929781 0
    outer loop
      vertex 0.861331 -1.35724 0
      vertex 1.03647 -1.42658 3
      vertex 0.861331 -1.35724 3
    endloop
  endfacet
  facet normal -0.368113 -0.929781 -0
    outer loop
      vertex 1.03647 -1.42658 3
      vertex 0.861331 -1.35724 0
      vertex 1.03647 -1.42658 0
    endloop
  endfacet
  facet normal 0 0 1
    outer loop
      vertex 2.98817 0.188 3
      vertex 2.98817 -0.188 3
      vertex 3 0 3
    endloop
  endfacet
  facet normal 0 0 1
    outer loop
      vertex 2.95287 0.373034 3
      vertex 2.98817 -0.188 3
      vertex 2.98817 0.188 3
    endloop
  endfacet
  facet normal 0 0 1
    outer loop
      vertex 2.95287 0.373034 3
      vertex 2.95287 -0.373034 3
      vertex 2.98817 -0.188 3
    endloop
  endfacet
  facet normal 0 0 1
    outer loop
      vertex 2.89466 0.552186 3
      vertex 2.95287 -0.373034 3
      vertex 2.95287 0.373034 3
    endloop
  endfacet
  facet normal 0 0 1
    outer loop
      vertex 2.89466 0.552186 3
      vertex 2.89466 -0.552186 3
      vertex 2.95287 -0.373034 3
    endloop
  endfacet
  facet normal 0 0 1
    outer loop
      vertex 2.81446 0.722631 3
      vertex 2.89466 -0.552186 3
      vertex 2.89466 0.552186 3
    endloop
  endfacet
  facet normal 0 0 1
    outer loop
      vertex 2.81446 0.722631 3
      vertex 2.81446 -0.722631 3
      vertex 2.89466 -0.552186 3
    endloop
  endfacet
  facet normal 0 0 1
    outer loop
      vertex 2.71352 0.881678 3
      vertex 2.81446 -0.722631 3
      vertex 2.81446 0.722631 3
    endloop
  endfacet
  facet normal 0 0 1
    outer loop
      vertex 2.71352 0.881678 3
      vertex 2.71352 -0.881678 3
      vertex 2.81446 -0.722631 3
    endloop
  endfacet
  facet normal 0 0 1
    outer loop
      vertex 2.59345 1.02682 3
      vertex 2.71352 -0.881678 3
      vertex 2.71352 0.881678 3
    endloop
  endfacet
  facet normal 0 0 1
    outer loop
      vertex 2.59345 1.02682 3
      vertex 2.59345 -1.02682 3
      vertex 2.71352 -0.881678 3
    endloop
  endfacet
  facet normal 0 0 1
    outer loop
      vertex 2.45614 1.15577 3
      vertex 2.59345 -1.02682 3
      vertex 2.59345 1.02682 3
    endloop
  endfacet
  facet normal 0 0 1
    outer loop
      vertex 2.45614 1.15577 3
      vertex 2.45614 -1.15577 3
      vertex 2.59345 -1.02682 3
    endloop
  endfacet
  facet normal 0 0 1
    outer loop
      vertex 2.30374 1.26649 3
      vertex 2.45614 -1.15577 3
      vertex 2.45614 1.15577 3
    endloop
  endfacet
  facet normal 0 0 1
    outer loop
      vertex 2.30374 1.26649 3
      vertex 2.30374 -1.26649 3
      vertex 2.45614 -1.15577 3
    endloop
  endfacet
  facet normal 0 0 1
    outer loop
      vertex 2.13867 1.35724 3
      vertex 2.30374 -1.26649 3
      vertex 2.30374 1.26649 3
    endloop
  endfacet
  facet normal 0 0 1
    outer loop
      vertex 2.13867 1.35724 3
      vertex 2.13867 -1.35724 3
      vertex 2.30374 -1.26649 3
    endloop
  endfacet
  facet normal 0 0 1
    outer loop
      vertex 1.96352 1.42658 3
      vertex 2.13867 -1.35724 3
      vertex 2.13867 1.35724 3
    endloop
  endfacet
  facet normal 0 0 1
    outer loop
      vertex 1.96352 1.42658 3
      vertex 1.96352 -1.42658 3
      vertex 2.13867 -1.35724 3
    endloop
  endfacet
  facet normal 0 0 1
    outer loop
      vertex 1.78107 1.47343 3
      vertex 1.96352 -1.42658 3
      vertex 1.96352 1.42658 3
    endloop
  endfacet
  facet normal 0 0 1
    outer loop
      vertex 1.78107 1.47343 3
      vertex 1.78107 -1.47343 3
      vertex 1.96352 -1.42658 3
    endloop
  endfacet
  facet normal 0 0 1
    outer loop
      vertex 1.59418 1.49704 3
      vertex 1.78107 -1.47343 3
      vertex 1.78107 1.47343 3
    endloop
  endfacet
  facet normal 0 0 1
    outer loop
      vertex 1.59418 1.49704 3
      vertex 1.59418 -1.49704 3
      vertex 1.78107 -1.47343 3
    endloop
  endfacet
  facet normal -0 0 1
    outer loop
      vertex 1.40581 1.49704 3
      vertex 1.59418 -1.49704 3
      vertex 1.59418 1.49704 3
    endloop
  endfacet
  facet normal 0 0 1
    outer loop
      vertex 1.40581 1.49704 3
      vertex 1.40581 -1.49704 3
      vertex 1.59418 -1.49704 3
    endloop
  endfacet
  facet normal -0 0 1
    outer loop
      vertex 1.21893 1.47343 3
      vertex 1.40581 -1.49704 3
      vertex 1.40581 1.49704 3
    endloop
  endfacet
  facet normal 0 0 1
    outer loop
      vertex 1.21893 1.47343 3
      vertex 1.21893 -1.47343 3
      vertex 1.40581 -1.49704 3
    endloop
  endfacet
  facet normal -0 0 1
    outer loop
      vertex 1.03647 1.42658 3
      vertex 1.21893 -1.47343 3
      vertex 1.21893 1.47343 3
    endloop
  endfacet
  facet normal 0 0 1
    outer loop
      vertex 1.03647 1.42658 3
      vertex 1.03647 -1.42658 3
      vertex 1.21893 -1.47343 3
    endloop
  endfacet
  facet normal -0 0 1
    outer loop
      vertex 0.861331 1.35724 3
      vertex 1.03647 -1.42658 3
      vertex 1.03647 1.42658 3
    endloop
  endfacet
  facet normal 0 0 1
    outer loop
      vertex 0.861331 1.35724 3
      vertex 0.861331 -1.35724 3
      vertex 1.03647 -1.42658 3
    endloop
  endfacet
  facet normal -0 0 1
    outer loop
      vertex 0.696259 1.26649 3
      vertex 0.861331 -1.35724 3
      vertex 0.861331 1.35724 3
    endloop
  endfacet
  facet normal 0 0 1
    outer loop
      vertex 0.696259 1.26649 3
      vertex 0.696259 -1.26649 3
      vertex 0.861331 -1.35724 3
    endloop
  endfacet
  facet normal -0 0 1
    outer loop
      vertex 0.543863 1.15577 3
      vertex 0.696259 -1.26649 3
      vertex 0.696259 1.26649 3
    endloop
  endfacet
  facet normal 0 0 1
    outer loop
      vertex 0.543863 1.15577 3
      vertex 0.543863 -1.15577 3
      vertex 0.696259 -1.26649 3
    endloop
  endfacet
  facet normal -0 0 1
    outer loop
      vertex 0.406547 1.02682 3
      vertex 0.543863 -1.15577 3
      vertex 0.543863 1.15577 3
    endloop
  endfacet
  facet normal 0 0 1
    outer loop
      vertex 0.406547 1.02682 3
      vertex 0.406547 -1.02682 3
      vertex 0.543863 -1.15577 3
    endloop
  endfacet
  facet normal -0 0 1
    outer loop
      vertex 0.286474 0.881678 3
      vertex 0.406547 -1.02682 3
      vertex 0.406547 1.02682 3
    endloop
  endfacet
  facet normal 0 0 1
    outer loop
      vertex 0.286474 0.881678 3
      vertex 0.286474 -0.881678 3
      vertex 0.406547 -1.02682 3
    endloop
  endfacet
  facet normal -0 0 1
    outer loop
      vertex 0.185539 0.722631 3
      vertex 0.286474 -0.881678 3
      vertex 0.286474 0.881678 3
    endloop
  endfacet
  facet normal 0 0 1
    outer loop
      vertex 0.185539 0.722631 3
      vertex 0.185539 -0.722631 3
      vertex 0.286474 -0.881678 3
    endloop
  endfacet
  facet normal -0 0 1
    outer loop
      vertex 0.105335 0.552186 3
      vertex 0.185539 -0.722631 3
      vertex 0.185539 0.722631 3
    endloop
  endfacet
  facet normal 0 0 1
    outer loop
      vertex 0.105335 0.552186 3
      vertex 0.105335 -0.552186 3
      vertex 0.185539 -0.722631 3
    endloop
  endfacet
  facet normal -0 0 1
    outer loop
      vertex 0.0471249 0.373034 3
      vertex 0.105335 -0.552186 3
      vertex 0.105335 0.552186 3
    endloop
  endfacet
  facet normal 0 0 1
    outer loop
      vertex 0.0471249 0.373034 3
      vertex 0.0471249 -0.373034 3
      vertex 0.105335 -0.552186 3
    endloop
  endfacet
  facet normal -0 0 1
    outer loop
      vertex 0.0118275 0.188 3
      vertex 0.0471249 -0.373034 3
      vertex 0.0471249 0.373034 3
    endloop
  endfacet
  facet normal 0 0 1
    outer loop
      vertex 0.0118275 0.188 3
      vertex 0.0118275 -0.188 3
      vertex 0.0471249 -0.373034 3
    endloop
  endfacet
  facet normal 0 -0 1
    outer loop
      vertex 0.0118275 -0.188 3
      vertex 0.0118275 0.188 3
      vertex 0 0 3
    endloop
  endfacet
  facet normal -0.951056 0.309017 0
    outer loop
      vertex 0.0471249 0.373034 0.5
      vertex 0.105335 0.552186 3
      vertex 0.105335 0.552186 0.5
    endloop
  endfacet
  facet normal -0.951056 0.309017 0
    outer loop
      vertex 0.105335 0.552186 3
      vertex 0.0471249 0.373034 0.5
      vertex 0.0471249 0.373034 3
    endloop
  endfacet
  facet normal 0.982284 0.1874 0
    outer loop
      vertex 2.98817 7.188 3
      vertex 2.95287 7.37303 0
      vertex 2.95287 7.37303 3
    endloop
  endfacet
  facet normal 0.982284 0.1874 0
    outer loop
      vertex 2.95287 7.37303 0
      vertex 2.98817 7.188 3
      vertex 2.98817 7.188 0
    endloop
  endfacet
  facet normal 0.998026 0.0628013 -0
    outer loop
      vertex 3 7 0.5
      vertex 2.98817 7.188 3
      vertex 3 7 3
    endloop
  endfacet
  facet normal 0.998026 0.0628013 0
    outer loop
      vertex 2.98817 7.188 3
      vertex 3 7 0.5
      vertex 2.98817 7.188 0
    endloop
  endfacet
  facet normal 0.998026 0.0628013 0
    outer loop
      vertex 2.98817 7.188 0
      vertex 3 7 0.5
      vertex 3 7 0
    endloop
  endfacet
  facet normal 0.844319 0.535841 0
    outer loop
      vertex 2.81446 7.72263 3
      vertex 2.71352 7.88168 0
      vertex 2.71352 7.88168 3
    endloop
  endfacet
  facet normal 0.844319 0.535841 0
    outer loop
      vertex 2.71352 7.88168 0
      vertex 2.81446 7.72263 3
      vertex 2.81446 7.72263 0
    endloop
  endfacet
  facet normal 0.368139 -0.929771 0
    outer loop
      vertex 1.96352 5.57341 0.5
      vertex 2.13867 5.64276 3
      vertex 1.96352 5.57341 3
    endloop
  endfacet
  facet normal 0.368139 -0.929771 0
    outer loop
      vertex 2.13867 5.64276 3
      vertex 1.96352 5.57341 0.5
      vertex 2.13867 5.64276 0.5
    endloop
  endfacet
  facet normal -0.95106 0.309005 0
    outer loop
      vertex 0.0471249 7.37303 0
      vertex 0.105335 7.55219 3
      vertex 0.105335 7.55219 0
    endloop
  endfacet
  facet normal -0.95106 0.309005 0
    outer loop
      vertex 0.105335 7.55219 3
      vertex 0.0471249 7.37303 0
      vertex 0.0471249 7.37303 3
    endloop
  endfacet
  facet normal 0.368093 0.929789 -0
    outer loop
      vertex 2.13867 8.35724 0
      vertex 1.96352 8.42658 3
      vertex 2.13867 8.35724 3
    endloop
  endfacet
  facet normal 0.368093 0.929789 0
    outer loop
      vertex 1.96352 8.42658 3
      vertex 2.13867 8.35724 0
      vertex 1.96352 8.42658 0
    endloop
  endfacet
  facet normal 0.684568 0.728949 -0
    outer loop
      vertex 2.59345 8.02682 0
      vertex 2.45614 8.15577 3
      vertex 2.59345 8.02682 3
    endloop
  endfacet
  facet normal 0.684568 0.728949 0
    outer loop
      vertex 2.45614 8.15577 3
      vertex 2.59345 8.02682 0
      vertex 2.45614 8.15577 0
    endloop
  endfacet
  facet normal -0.982288 -0.187377 0
    outer loop
      vertex 0.0471249 6.62696 0.5
      vertex 0.0118275 6.812 3
      vertex 0.0118275 6.812 0.5
    endloop
  endfacet
  facet normal -0.982288 -0.187377 0
    outer loop
      vertex 0.0118275 6.812 3
      vertex 0.0471249 6.62696 0.5
      vertex 0.0471249 6.62696 3
    endloop
  endfacet
  facet normal -0.998027 -0.0627881 0
    outer loop
      vertex 0.0118275 6.812 0.5
      vertex 0 7 3
      vertex 0 7 0.5
    endloop
  endfacet
  facet normal -0.998027 -0.0627881 0
    outer loop
      vertex 0 7 3
      vertex 0.0118275 6.812 0.5
      vertex 0.0118275 6.812 3
    endloop
  endfacet
  facet normal -0.951055 -0.309021 0
    outer loop
      vertex 0.105335 6.44781 0.5
      vertex 0.0471249 6.62696 3
      vertex 0.0471249 6.62696 0.5
    endloop
  endfacet
  facet normal -0.951055 -0.309021 0
    outer loop
      vertex 0.0471249 6.62696 3
      vertex 0.105335 6.44781 0.5
      vertex 0.105335 6.44781 3
    endloop
  endfacet
  facet normal 0.982286 -0.18739 0
    outer loop
      vertex 2.95287 6.62696 3
      vertex 2.98817 6.812 0.5
      vertex 2.98817 6.812 3
    endloop
  endfacet
  facet normal 0.982286 -0.18739 0
    outer loop
      vertex 2.98817 6.812 0.5
      vertex 2.95287 6.62696 3
      vertex 2.95287 6.62696 0.5
    endloop
  endfacet
  facet normal 0.904833 0.425766 0
    outer loop
      vertex 2.89466 7.55219 3
      vertex 2.81446 7.72263 0
      vertex 2.81446 7.72263 3
    endloop
  endfacet
  facet normal 0.904833 0.425766 0
    outer loop
      vertex 2.81446 7.72263 0
      vertex 2.89466 7.55219 3
      vertex 2.89466 7.55219 0
    endloop
  endfacet
  facet normal -0.587778 0.809022 0
    outer loop
      vertex 0.696259 8.26649 0
      vertex 0.543863 8.15577 3
      vertex 0.696259 8.26649 3
    endloop
  endfacet
  facet normal -0.587778 0.809022 0
    outer loop
      vertex 0.543863 8.15577 3
      vertex 0.696259 8.26649 0
      vertex 0.543863 8.15577 0
    endloop
  endfacet
  facet normal -0.982286 0.187387 0
    outer loop
      vertex 0.0118275 7.188 0
      vertex 0.0471249 7.37303 3
      vertex 0.0471249 7.37303 0
    endloop
  endfacet
  facet normal -0.982286 0.187387 0
    outer loop
      vertex 0.0471249 7.37303 3
      vertex 0.0118275 7.188 0
      vertex 0.0118275 7.188 3
    endloop
  endfacet
  facet normal 0.587768 -0.80903 0
    outer loop
      vertex 2.30374 5.73351 0.5
      vertex 2.45614 5.84423 3
      vertex 2.30374 5.73351 3
    endloop
  endfacet
  facet normal 0.587768 -0.80903 0
    outer loop
      vertex 2.45614 5.84423 3
      vertex 2.30374 5.73351 0.5
      vertex 2.45614 5.84423 0.5
    endloop
  endfacet
  facet normal 0.951061 0.309004 0
    outer loop
      vertex 2.95287 7.37303 3
      vertex 2.89466 7.55219 0
      vertex 2.89466 7.55219 3
    endloop
  endfacet
  facet normal 0.951061 0.309004 0
    outer loop
      vertex 2.89466 7.55219 0
      vertex 2.95287 7.37303 3
      vertex 2.95287 7.37303 0
    endloop
  endfacet
  facet normal 0.481762 -0.876302 0
    outer loop
      vertex 2.13867 5.64276 0.5
      vertex 2.30374 5.73351 3
      vertex 2.13867 5.64276 3
    endloop
  endfacet
  facet normal 0.481762 -0.876302 0
    outer loop
      vertex 2.30374 5.73351 3
      vertex 2.13867 5.64276 0.5
      vertex 2.30374 5.73351 0.5
    endloop
  endfacet
  facet normal -0.684552 0.728964 0
    outer loop
      vertex 0.543863 8.15577 0
      vertex 0.406547 8.02682 3
      vertex 0.543863 8.15577 3
    endloop
  endfacet
  facet normal -0.684552 0.728964 0
    outer loop
      vertex 0.406547 8.02682 3
      vertex 0.543863 8.15577 0
      vertex 0.406547 8.02682 0
    endloop
  endfacet
  facet normal -0.481757 0.876305 0
    outer loop
      vertex 0.861331 8.35724 0
      vertex 0.696259 8.26649 3
      vertex 0.861331 8.35724 3
    endloop
  endfacet
  facet normal -0.481757 0.876305 0
    outer loop
      vertex 0.696259 8.26649 3
      vertex 0.861331 8.35724 0
      vertex 0.696259 8.26649 0
    endloop
  endfacet
  facet normal -0.770506 -0.637433 0
    outer loop
      vertex 0.406547 5.97318 0.5
      vertex 0.286474 6.11832 3
      vertex 0.286474 6.11832 0.5
    endloop
  endfacet
  facet normal -0.770506 -0.637433 0
    outer loop
      vertex 0.286474 6.11832 3
      vertex 0.406547 5.97318 0.5
      vertex 0.406547 5.97318 3
    endloop
  endfacet
  facet normal -0.904825 -0.425784 0
    outer loop
      vertex 0.185539 6.27737 0.5
      vertex 0.105335 6.44781 3
      vertex 0.105335 6.44781 0.5
    endloop
  endfacet
  facet normal -0.904825 -0.425784 0
    outer loop
      vertex 0.105335 6.44781 3
      vertex 0.185539 6.27737 0.5
      vertex 0.185539 6.27737 3
    endloop
  endfacet
  facet normal -0.481757 -0.876305 0
    outer loop
      vertex 0.696259 5.73351 0.5
      vertex 0.861331 5.64276 3
      vertex 0.696259 5.73351 3
    endloop
  endfacet
  facet normal -0.481757 -0.876305 -0
    outer loop
      vertex 0.861331 5.64276 3
      vertex 0.696259 5.73351 0.5
      vertex 0.861331 5.64276 0.5
    endloop
  endfacet
  facet normal -0.248651 -0.968593 0
    outer loop
      vertex 1.03647 5.57341 0.5
      vertex 1.21893 5.52657 3
      vertex 1.03647 5.57341 3
    endloop
  endfacet
  facet normal -0.248651 -0.968593 -0
    outer loop
      vertex 1.21893 5.52657 3
      vertex 1.03647 5.57341 0.5
      vertex 1.21893 5.52657 0.5
    endloop
  endfacet
  facet normal 0.998026 -0.0628013 0
    outer loop
      vertex 2.98817 6.812 3
      vertex 3 7 0.5
      vertex 3 7 3
    endloop
  endfacet
  facet normal 0.998026 -0.0628013 0
    outer loop
      vertex 3 7 0.5
      vertex 2.98817 6.812 3
      vertex 2.98817 6.812 0.5
    endloop
  endfacet
  facet normal 0.481762 0.876302 -0
    outer loop
      vertex 2.30374 8.26649 0
      vertex 2.13867 8.35724 3
      vertex 2.30374 8.26649 3
    endloop
  endfacet
  facet normal 0.481762 0.876302 0
    outer loop
      vertex 2.13867 8.35724 3
      vertex 2.30374 8.26649 0
      vertex 2.13867 8.35724 0
    endloop
  endfacet
  facet normal 0.904833 -0.425766 0
    outer loop
      vertex 2.81446 6.27737 3
      vertex 2.89466 6.44781 0.5
      vertex 2.89466 6.44781 3
    endloop
  endfacet
  facet normal 0.904833 -0.425766 0
    outer loop
      vertex 2.89466 6.44781 0.5
      vertex 2.81446 6.27737 3
      vertex 2.81446 6.27737 0.5
    endloop
  endfacet
  facet normal -0.844331 -0.535822 0
    outer loop
      vertex 0.286474 6.11832 0.5
      vertex 0.185539 6.27737 3
      vertex 0.185539 6.27737 0.5
    endloop
  endfacet
  facet normal -0.844331 -0.535822 0
    outer loop
      vertex 0.185539 6.27737 3
      vertex 0.286474 6.11832 0.5
      vertex 0.286474 6.11832 3
    endloop
  endfacet
  facet normal 0.248664 -0.96859 0
    outer loop
      vertex 1.78107 5.52657 0.5
      vertex 1.96352 5.57341 3
      vertex 1.78107 5.52657 3
    endloop
  endfacet
  facet normal 0.248664 -0.96859 0
    outer loop
      vertex 1.96352 5.57341 3
      vertex 1.78107 5.52657 0.5
      vertex 1.96352 5.57341 0.5
    endloop
  endfacet
  facet normal 0.248714 0.968577 -0
    outer loop
      vertex 1.96352 8.42658 0
      vertex 1.78107 8.47343 3
      vertex 1.96352 8.42658 3
    endloop
  endfacet
  facet normal 0.248714 0.968577 0
    outer loop
      vertex 1.78107 8.47343 3
      vertex 1.96352 8.42658 0
      vertex 1.78107 8.47343 0
    endloop
  endfacet
  facet normal -0.248701 0.96858 0
    outer loop
      vertex 1.21893 8.47343 0
      vertex 1.03647 8.42658 3
      vertex 1.21893 8.47343 3
    endloop
  endfacet
  facet normal -0.248701 0.96858 0
    outer loop
      vertex 1.03647 8.42658 3
      vertex 1.21893 8.47343 0
      vertex 1.03647 8.42658 0
    endloop
  endfacet
  facet normal 0.844319 -0.535841 0
    outer loop
      vertex 2.71352 6.11832 3
      vertex 2.81446 6.27737 0.5
      vertex 2.81446 6.27737 3
    endloop
  endfacet
  facet normal 0.844319 -0.535841 0
    outer loop
      vertex 2.81446 6.27737 0.5
      vertex 2.71352 6.11832 3
      vertex 2.71352 6.11832 0.5
    endloop
  endfacet
  facet normal -0.844331 0.535822 0
    outer loop
      vertex 0.185539 7.72263 0
      vertex 0.286474 7.88168 3
      vertex 0.286474 7.88168 0
    endloop
  endfacet
  facet normal -0.844331 0.535822 0
    outer loop
      vertex 0.286474 7.88168 3
      vertex 0.185539 7.72263 0
      vertex 0.185539 7.72263 3
    endloop
  endfacet
  facet normal 0 -1 0
    outer loop
      vertex 1.40581 5.50296 0.5
      vertex 1.59418 5.50296 3
      vertex 1.40581 5.50296 3
    endloop
  endfacet
  facet normal 0 -1 -0
    outer loop
      vertex 1.59418 5.50296 3
      vertex 1.40581 5.50296 0.5
      vertex 1.59418 5.50296 0.5
    endloop
  endfacet
  facet normal -0.684552 -0.728964 0
    outer loop
      vertex 0.406547 5.97318 0.5
      vertex 0.543863 5.84423 3
      vertex 0.406547 5.97318 3
    endloop
  endfacet
  facet normal -0.684552 -0.728964 -0
    outer loop
      vertex 0.543863 5.84423 3
      vertex 0.406547 5.97318 0.5
      vertex 0.543863 5.84423 0.5
    endloop
  endfacet
  facet normal -0.998027 0.0627881 0
    outer loop
      vertex 0 7 0.5
      vertex 0.0118275 7.188 0
      vertex 0 7 0
    endloop
  endfacet
  facet normal -0.998027 0.0627881 0
    outer loop
      vertex 0.0118275 7.188 0
      vertex 0 7 0.5
      vertex 0.0118275 7.188 3
    endloop
  endfacet
  facet normal -0.998027 0.0627881 0
    outer loop
      vertex 0.0118275 7.188 3
      vertex 0 7 0.5
      vertex 0 7 3
    endloop
  endfacet
  facet normal -0.368113 0.929781 0
    outer loop
      vertex 1.03647 8.42658 0
      vertex 0.861331 8.35724 3
      vertex 1.03647 8.42658 3
    endloop
  endfacet
  facet normal -0.368113 0.929781 0
    outer loop
      vertex 0.861331 8.35724 3
      vertex 1.03647 8.42658 0
      vertex 0.861331 8.35724 0
    endloop
  endfacet
  facet normal -0.904825 0.425784 0
    outer loop
      vertex 0.105335 7.55219 0
      vertex 0.185539 7.72263 3
      vertex 0.185539 7.72263 0
    endloop
  endfacet
  facet normal -0.904825 0.425784 0
    outer loop
      vertex 0.185539 7.72263 3
      vertex 0.105335 7.55219 0
      vertex 0.105335 7.55219 3
    endloop
  endfacet
  facet normal -0.125341 -0.992114 0
    outer loop
      vertex 1.21893 5.52657 0.5
      vertex 1.40581 5.50296 3
      vertex 1.21893 5.52657 3
    endloop
  endfacet
  facet normal -0.125341 -0.992114 -0
    outer loop
      vertex 1.40581 5.50296 3
      vertex 1.21893 5.52657 0.5
      vertex 1.40581 5.50296 0.5
    endloop
  endfacet
  facet normal 0.770514 0.637423 0
    outer loop
      vertex 2.71352 7.88168 3
      vertex 2.59345 8.02682 0
      vertex 2.59345 8.02682 3
    endloop
  endfacet
  facet normal 0.770514 0.637423 0
    outer loop
      vertex 2.59345 8.02682 0
      vertex 2.71352 7.88168 3
      vertex 2.71352 7.88168 0
    endloop
  endfacet
  facet normal 0.587768 0.80903 -0
    outer loop
      vertex 2.45614 8.15577 0
      vertex 2.30374 8.26649 3
      vertex 2.45614 8.15577 3
    endloop
  endfacet
  facet normal 0.587768 0.80903 0
    outer loop
      vertex 2.30374 8.26649 3
      vertex 2.45614 8.15577 0
      vertex 2.30374 8.26649 0
    endloop
  endfacet
  facet normal 0.951056 -0.30902 0
    outer loop
      vertex 2.89466 6.44781 3
      vertex 2.95287 6.62696 0.5
      vertex 2.95287 6.62696 3
    endloop
  endfacet
  facet normal 0.951056 -0.30902 0
    outer loop
      vertex 2.95287 6.62696 0.5
      vertex 2.89466 6.44781 3
      vertex 2.89466 6.44781 0.5
    endloop
  endfacet
  facet normal -0.770506 0.637433 0
    outer loop
      vertex 0.286474 7.88168 0
      vertex 0.406547 8.02682 3
      vertex 0.406547 8.02682 0
    endloop
  endfacet
  facet normal -0.770506 0.637433 0
    outer loop
      vertex 0.406547 8.02682 3
      vertex 0.286474 7.88168 0
      vertex 0.286474 7.88168 3
    endloop
  endfacet
  facet normal 0.125335 0.992115 -0
    outer loop
      vertex 1.78107 8.47343 0
      vertex 1.59418 8.49704 3
      vertex 1.78107 8.47343 3
    endloop
  endfacet
  facet normal 0.125335 0.992115 0
    outer loop
      vertex 1.59418 8.49704 3
      vertex 1.78107 8.47343 0
      vertex 1.59418 8.49704 0
    endloop
  endfacet
  facet normal -0.587778 -0.809022 0
    outer loop
      vertex 0.543863 5.84423 0.5
      vertex 0.696259 5.73351 3
      vertex 0.543863 5.84423 3
    endloop
  endfacet
  facet normal -0.587778 -0.809022 -0
    outer loop
      vertex 0.696259 5.73351 3
      vertex 0.543863 5.84423 0.5
      vertex 0.696259 5.73351 0.5
    endloop
  endfacet
  facet normal 0.125335 -0.992115 0
    outer loop
      vertex 1.59418 5.50296 0.5
      vertex 1.78107 5.52657 3
      vertex 1.59418 5.50296 3
    endloop
  endfacet
  facet normal 0.125335 -0.992115 0
    outer loop
      vertex 1.78107 5.52657 3
      vertex 1.59418 5.50296 0.5
      vertex 1.78107 5.52657 0.5
    endloop
  endfacet
  facet normal -0.125341 0.992114 0
    outer loop
      vertex 1.40581 8.49704 0
      vertex 1.21893 8.47343 3
      vertex 1.40581 8.49704 3
    endloop
  endfacet
  facet normal -0.125341 0.992114 0
    outer loop
      vertex 1.21893 8.47343 3
      vertex 1.40581 8.49704 0
      vertex 1.21893 8.47343 0
    endloop
  endfacet
  facet normal 0.684568 -0.728949 0
    outer loop
      vertex 2.45614 5.84423 0.5
      vertex 2.59345 5.97318 3
      vertex 2.45614 5.84423 3
    endloop
  endfacet
  facet normal 0.684568 -0.728949 0
    outer loop
      vertex 2.59345 5.97318 3
      vertex 2.45614 5.84423 0.5
      vertex 2.59345 5.97318 0.5
    endloop
  endfacet
  facet normal 0.770514 -0.637423 0
    outer loop
      vertex 2.59345 5.97318 3
      vertex 2.71352 6.11832 0.5
      vertex 2.71352 6.11832 3
    endloop
  endfacet
  facet normal 0.770514 -0.637423 0
    outer loop
      vertex 2.71352 6.11832 0.5
      vertex 2.59345 5.97318 3
      vertex 2.59345 5.97318 0.5
    endloop
  endfacet
  facet normal 0 1 -0
    outer loop
      vertex 1.59418 8.49704 0
      vertex 1.40581 8.49704 3
      vertex 1.59418 8.49704 3
    endloop
  endfacet
  facet normal 0 1 0
    outer loop
      vertex 1.40581 8.49704 3
      vertex 1.59418 8.49704 0
      vertex 1.40581 8.49704 0
    endloop
  endfacet
  facet normal 0 0 1
    outer loop
      vertex 2.98817 7.188 3
      vertex 2.98817 6.812 3
      vertex 3 7 3
    endloop
  endfacet
  facet normal 0 0 1
    outer loop
      vertex 2.95287 7.37303 3
      vertex 2.98817 6.812 3
      vertex 2.98817 7.188 3
    endloop
  endfacet
  facet normal 0 0 1
    outer loop
      vertex 2.95287 7.37303 3
      vertex 2.95287 6.62696 3
      vertex 2.98817 6.812 3
    endloop
  endfacet
  facet normal 0 0 1
    outer loop
      vertex 2.89466 7.55219 3
      vertex 2.95287 6.62696 3
      vertex 2.95287 7.37303 3
    endloop
  endfacet
  facet normal 0 0 1
    outer loop
      vertex 2.89466 7.55219 3
      vertex 2.89466 6.44781 3
      vertex 2.95287 6.62696 3
    endloop
  endfacet
  facet normal 0 0 1
    outer loop
      vertex 2.81446 7.72263 3
      vertex 2.89466 6.44781 3
      vertex 2.89466 7.55219 3
    endloop
  endfacet
  facet normal 0 0 1
    outer loop
      vertex 2.81446 7.72263 3
      vertex 2.81446 6.27737 3
      vertex 2.89466 6.44781 3
    endloop
  endfacet
  facet normal 0 0 1
    outer loop
      vertex 2.71352 7.88168 3
      vertex 2.81446 6.27737 3
      vertex 2.81446 7.72263 3
    endloop
  endfacet
  facet normal 0 0 1
    outer loop
      vertex 2.71352 7.88168 3
      vertex 2.71352 6.11832 3
      vertex 2.81446 6.27737 3
    endloop
  endfacet
  facet normal 0 0 1
    outer loop
      vertex 2.59345 8.02682 3
      vertex 2.71352 6.11832 3
      vertex 2.71352 7.88168 3
    endloop
  endfacet
  facet normal 0 0 1
    outer loop
      vertex 2.59345 8.02682 3
      vertex 2.59345 5.97318 3
      vertex 2.71352 6.11832 3
    endloop
  endfacet
  facet normal 0 0 1
    outer loop
      vertex 2.45614 8.15577 3
      vertex 2.59345 5.97318 3
      vertex 2.59345 8.02682 3
    endloop
  endfacet
  facet normal 0 0 1
    outer loop
      vertex 2.45614 8.15577 3
      vertex 2.45614 5.84423 3
      vertex 2.59345 5.97318 3
    endloop
  endfacet
  facet normal 0 0 1
    outer loop
      vertex 2.30374 8.26649 3
      vertex 2.45614 5.84423 3
      vertex 2.45614 8.15577 3
    endloop
  endfacet
  facet normal 0 0 1
    outer loop
      vertex 2.30374 8.26649 3
      vertex 2.30374 5.73351 3
      vertex 2.45614 5.84423 3
    endloop
  endfacet
  facet normal 0 0 1
    outer loop
      vertex 2.13867 8.35724 3
      vertex 2.30374 5.73351 3
      vertex 2.30374 8.26649 3
    endloop
  endfacet
  facet normal 0 0 1
    outer loop
      vertex 2.13867 8.35724 3
      vertex 2.13867 5.64276 3
      vertex 2.30374 5.73351 3
    endloop
  endfacet
  facet normal 0 0 1
    outer loop
      vertex 1.96352 8.42658 3
      vertex 2.13867 5.64276 3
      vertex 2.13867 8.35724 3
    endloop
  endfacet
  facet normal 0 0 1
    outer loop
      vertex 1.96352 8.42658 3
      vertex 1.96352 5.57341 3
      vertex 2.13867 5.64276 3
    endloop
  endfacet
  facet normal 0 0 1
    outer loop
      vertex 1.78107 8.47343 3
      vertex 1.96352 5.57341 3
      vertex 1.96352 8.42658 3
    endloop
  endfacet
  facet normal 0 0 1
    outer loop
      vertex 1.78107 8.47343 3
      vertex 1.78107 5.52657 3
      vertex 1.96352 5.57341 3
    endloop
  endfacet
  facet normal 0 0 1
    outer loop
      vertex 1.59418 8.49704 3
      vertex 1.78107 5.52657 3
      vertex 1.78107 8.47343 3
    endloop
  endfacet
  facet normal 0 0 1
    outer loop
      vertex 1.59418 8.49704 3
      vertex 1.59418 5.50296 3
      vertex 1.78107 5.52657 3
    endloop
  endfacet
  facet normal -0 0 1
    outer loop
      vertex 1.40581 8.49704 3
      vertex 1.59418 5.50296 3
      vertex 1.59418 8.49704 3
    endloop
  endfacet
  facet normal 0 0 1
    outer loop
      vertex 1.40581 8.49704 3
      vertex 1.40581 5.50296 3
      vertex 1.59418 5.50296 3
    endloop
  endfacet
  facet normal -0 0 1
    outer loop
      vertex 1.21893 8.47343 3
      vertex 1.40581 5.50296 3
      vertex 1.40581 8.49704 3
    endloop
  endfacet
  facet normal 0 0 1
    outer loop
      vertex 1.21893 8.47343 3
      vertex 1.21893 5.52657 3
      vertex 1.40581 5.50296 3
    endloop
  endfacet
  facet normal -0 0 1
    outer loop
      vertex 1.03647 8.42658 3
      vertex 1.21893 5.52657 3
      vertex 1.21893 8.47343 3
    endloop
  endfacet
  facet normal 0 0 1
    outer loop
      vertex 1.03647 8.42658 3
      vertex 1.03647 5.57341 3
      vertex 1.21893 5.52657 3
    endloop
  endfacet
  facet normal -0 0 1
    outer loop
      vertex 0.861331 8.35724 3
      vertex 1.03647 5.57341 3
      vertex 1.03647 8.42658 3
    endloop
  endfacet
  facet normal 0 0 1
    outer loop
      vertex 0.861331 8.35724 3
      vertex 0.861331 5.64276 3
      vertex 1.03647 5.57341 3
    endloop
  endfacet
  facet normal -0 0 1
    outer loop
      vertex 0.696259 8.26649 3
      vertex 0.861331 5.64276 3
      vertex 0.861331 8.35724 3
    endloop
  endfacet
  facet normal 0 0 1
    outer loop
      vertex 0.696259 8.26649 3
      vertex 0.696259 5.73351 3
      vertex 0.861331 5.64276 3
    endloop
  endfacet
  facet normal -0 0 1
    outer loop
      vertex 0.543863 8.15577 3
      vertex 0.696259 5.73351 3
      vertex 0.696259 8.26649 3
    endloop
  endfacet
  facet normal 0 0 1
    outer loop
      vertex 0.543863 8.15577 3
      vertex 0.543863 5.84423 3
      vertex 0.696259 5.73351 3
    endloop
  endfacet
  facet normal -0 0 1
    outer loop
      vertex 0.406547 8.02682 3
      vertex 0.543863 5.84423 3
      vertex 0.543863 8.15577 3
    endloop
  endfacet
  facet normal 0 0 1
    outer loop
      vertex 0.406547 8.02682 3
      vertex 0.406547 5.97318 3
      vertex 0.543863 5.84423 3
    endloop
  endfacet
  facet normal -0 0 1
    outer loop
      vertex 0.286474 7.88168 3
      vertex 0.406547 5.97318 3
      vertex 0.406547 8.02682 3
    endloop
  endfacet
  facet normal 0 0 1
    outer loop
      vertex 0.286474 7.88168 3
      vertex 0.286474 6.11832 3
      vertex 0.406547 5.97318 3
    endloop
  endfacet
  facet normal -0 0 1
    outer loop
      vertex 0.185539 7.72263 3
      vertex 0.286474 6.11832 3
      vertex 0.286474 7.88168 3
    endloop
  endfacet
  facet normal 0 0 1
    outer loop
      vertex 0.185539 7.72263 3
      vertex 0.185539 6.27737 3
      vertex 0.286474 6.11832 3
    endloop
  endfacet
  facet normal -0 0 1
    outer loop
      vertex 0.105335 7.55219 3
      vertex 0.185539 6.27737 3
      vertex 0.185539 7.72263 3
    endloop
  endfacet
  facet normal 0 0 1
    outer loop
      vertex 0.105335 7.55219 3
      vertex 0.105335 6.44781 3
      vertex 0.185539 6.27737 3
    endloop
  endfacet
  facet normal -0 0 1
    outer loop
      vertex 0.0471249 7.37303 3
      vertex 0.105335 6.44781 3
      vertex 0.105335 7.55219 3
    endloop
  endfacet
  facet normal 0 0 1
    outer loop
      vertex 0.0471249 7.37303 3
      vertex 0.0471249 6.62696 3
      vertex 0.105335 6.44781 3
    endloop
  endfacet
  facet normal -0 0 1
    outer loop
      vertex 0.0118275 7.188 3
      vertex 0.0471249 6.62696 3
      vertex 0.0471249 7.37303 3
    endloop
  endfacet
  facet normal 0 0 1
    outer loop
      vertex 0.0118275 7.188 3
      vertex 0.0118275 6.812 3
      vertex 0.0471249 6.62696 3
    endloop
  endfacet
  facet normal 0 -0 1
    outer loop
      vertex 0.0118275 6.812 3
      vertex 0.0118275 7.188 3
      vertex 0 7 3
    endloop
  endfacet
  facet normal -0.368159 -0.929763 0
    outer loop
      vertex 0.861331 5.64276 0.5
      vertex 1.03647 5.57341 3
      vertex 0.861331 5.64276 3
    endloop
  endfacet
  facet normal -0.368159 -0.929763 -0
    outer loop
      vertex 1.03647 5.57341 3
      vertex 0.861331 5.64276 0.5
      vertex 1.03647 5.57341 0.5
    endloop
  endfacet
endsolid OpenSCAD_Model
